<?xml version="1.0" encoding="UTF-8"?>
<svg width="165px" height="165px" viewBox="0 0 165 165" version="1.1" xmlns="http://www.w3.org/2000/svg" xmlns:xlink="http://www.w3.org/1999/xlink">
    <!-- Generator: Sketch 53.2 (72643) - https://sketchapp.com -->
    <title>Default</title>
    <desc>Created with Sketch.</desc>
    <g id="Page-1" stroke="none" stroke-width="1" fill="none" fill-rule="evenodd">
        <path d="M82.5,165 C36.9365081,165 0,128.063492 0,82.5 C0,36.9365081 36.9365081,0 82.5,0 C128.063492,0 165,36.9365081 165,82.5 C165,128.063492 128.063492,165 82.5,165 Z M115.5,99 C124.612698,99 132,91.3888407 132,82 C132,72.6111593 124.612698,65 115.5,65 C106.387302,65 99,72.6111593 99,82 C99,91.3888407 106.387302,99 115.5,99 Z M49.5,99 C58.6126984,99 66,91.3888407 66,82 C66,72.6111593 58.6126984,65 49.5,65 C40.3873016,65 33,72.6111593 33,82 C33,91.3888407 40.3873016,99 49.5,99 Z M66,114 L66,129 L99,129 L99,114 L66,114 Z" id="Default" fill="#000000"></path>
    </g>
</svg>