<?xml version="1.0" encoding="UTF-8"?>
<svg width="165px" height="165px" viewBox="0 0 165 165" version="1.1" xmlns="http://www.w3.org/2000/svg" xmlns:xlink="http://www.w3.org/1999/xlink">
    <!-- Generator: Sketch 53.2 (72643) - https://sketchapp.com -->
    <title>Error</title>
    <desc>Created with Sketch.</desc>
    <g id="Page-1" stroke="none" stroke-width="1" fill="none" fill-rule="evenodd">
        <path d="M94.8695048,7.74207645 L163.217029,144.437125 C166.674878,151.352824 163.871738,159.762246 156.956039,163.220096 C155.012063,164.192084 152.86848,164.698115 150.695048,164.698115 L14,164.698115 C6.2680135,164.698115 -4.08562073e-14,158.430102 -4.26325641e-14,150.698115 C-4.26325641e-14,148.524684 0.506031285,146.381101 1.47801933,144.437125 L69.8255435,7.74207645 C73.283393,0.826377491 81.6928155,-1.97676336 88.6085145,1.48108612 C91.3178981,2.83577793 93.514813,5.03269282 94.8695048,7.74207645 Z M70.4105124,130.924678 C70.4105124,134.182506 71.5529978,136.953882 73.8380027,139.238887 C76.1230076,141.523892 78.8943829,142.666377 82.1522117,142.666377 C85.4100404,142.666377 88.1814157,141.523892 90.4664206,139.238887 C92.7514256,136.953882 93.8939109,134.182506 93.8939109,130.924678 C93.8939109,127.666849 92.7514256,124.895474 90.4664206,122.610469 C88.1814157,120.325464 85.4100404,119.182978 82.1522117,119.182978 C78.8943829,119.182978 76.1230076,120.325464 73.8380027,122.610469 C71.5529978,124.895474 70.4105124,127.666849 70.4105124,130.924678 Z M70.4105124,58.845576 C70.4105124,60.5649857 70.7951115,62.9404502 71.564321,65.9720409 C72.0620449,67.9176886 73.170595,71.8089258 74.8900046,77.645869 C76.2474333,82.2158788 77.1523722,85.7677639 77.6048484,88.3016307 C78.0573246,90.8354976 78.93964,97.4867982 80.251821,108.255732 L84.2562156,108.255732 C85.2064156,99.7039317 85.8964315,94.0141286 86.3262839,91.1861522 C86.7561363,88.3581758 87.5592696,84.8176025 88.7357078,80.564326 C90.6813555,73.505697 92.0274521,68.4267276 92.7740378,65.3272655 C93.5206236,62.2278034 93.8939109,59.9088975 93.8939109,58.3704784 C93.8939109,53.4837352 92.7061786,49.9770971 90.3306785,47.8504589 C87.9551783,45.7238206 85.22905,44.6605175 82.1522117,44.6605175 C78.9848781,44.6605175 76.2361263,45.7351324 73.9058738,47.8843944 C71.5756212,50.0336565 70.4105124,53.6873471 70.4105124,58.845576 Z" id="Error" fill="#000000"></path>
    </g>
</svg>