<?xml version="1.0" encoding="UTF-8"?>
<svg width="165px" height="165px" viewBox="0 0 165 165" version="1.1" xmlns="http://www.w3.org/2000/svg" xmlns:xlink="http://www.w3.org/1999/xlink">
    <!-- Generator: Sketch 53.2 (72643) - https://sketchapp.com -->
    <title>Info</title>
    <desc>Created with Sketch.</desc>
    <g id="Page-1" stroke="none" stroke-width="1" fill="none" fill-rule="evenodd">
        <path d="M82.5,165 C36.9365081,165 0,128.063492 0,82.5 C0,36.9365081 36.9365081,0 82.5,0 C128.063492,0 165,36.9365081 165,82.5 C165,128.063492 128.063492,165 82.5,165 Z M71.3481445,44.7539062 C71.3481445,47.7402493 72.400136,50.2853899 74.5041504,52.3894043 C76.6081648,54.4934187 79.1533054,55.5454102 82.1396484,55.5454102 C85.0807439,55.5454102 87.603261,54.4934187 89.7072754,52.3894043 C91.8112898,50.2853899 92.8632812,47.7402493 92.8632812,44.7539062 C92.8632812,41.7675632 91.8112898,39.2224226 89.7072754,37.1184082 C87.603261,35.0143938 85.0807439,33.9624023 82.1396484,33.9624023 C79.1533054,33.9624023 76.6081648,35.0143938 74.5041504,37.1184082 C72.400136,39.2224226 71.3481445,41.7675632 71.3481445,44.7539062 Z M65.2397461,126.674316 L65.2397461,130 L98.3608398,130 L98.3608398,126.674316 C95.8722206,126.176593 94.1754603,125.497888 93.2705078,124.638184 C92.3655554,123.778479 91.9130859,121.83286 91.9130859,118.80127 L91.9130859,65.9975586 L65.2397461,65.9975586 L65.2397461,69.3911133 C68.0450987,69.8888371 69.9228468,70.6467234 70.8730469,71.6647949 C71.8232469,72.6828664 72.2983398,74.5945498 72.2983398,77.3999023 L72.2983398,118.258301 C72.2983398,121.425634 71.6196357,123.620111 70.262207,124.841797 C69.3572546,125.656254 67.6831177,126.267088 65.2397461,126.674316 Z" id="Info" fill="#000000"></path>
    </g>
</svg>