<?xml version="1.0" encoding="UTF-8"?>
<svg width="165px" height="165px" viewBox="0 0 165 165" version="1.1" xmlns="http://www.w3.org/2000/svg" xmlns:xlink="http://www.w3.org/1999/xlink">
    <!-- Generator: Sketch 53.2 (72643) - https://sketchapp.com -->
    <title>Note</title>
    <desc>Created with Sketch.</desc>
    <g id="Page-1" stroke="none" stroke-width="1" fill="none" fill-rule="evenodd">
        <path d="M40,0.5 C18.1847524,0.5 0.5,18.1847524 0.5,40 L0.5,125 C0.5,146.815248 18.1847524,164.5 40,164.5 L125,164.5 C146.815248,164.5 164.5,146.815248 164.5,125 L164.5,40 C164.5,18.1847524 146.815248,0.5 125,0.5 L40,0.5 Z M73.9421225,101.035652 C105.680247,64.0622419 122.973943,44.3076275 125.890221,41.6952841 C129.340278,37.6445263 135.770506,37.5263132 140.538208,40.8455453 C145.631474,44.3914319 146.755991,50.3287958 142.263833,56.0881327 C114.758351,89.0776641 89.30795,118.028061 81.5674939,125.633994 C76.464822,130.398827 70.5909248,130.398827 66.4355344,125.58961 C62.9024905,121.371642 58.9333122,116.710237 54.3854087,111.427565 C53.8350288,110.788264 53.2758998,110.139548 52.706934,109.480131 C49.8512069,106.170414 46.9143172,102.783286 43.1506474,98.4546038 C43.1657573,98.4719821 36.1709078,90.431646 34.3564576,88.341891 C27.8799723,80.882735 24.2336656,76.6160672 22.1013335,73.9633891 L22.095737,73.9562966 C15.4200148,65.3371074 30.5778334,52.1721209 38.5786063,60.512576 C48.9690719,71.5242952 60.7566779,85.0318321 73.9420929,101.035687 Z" id="Note" stroke="#979797" fill="#000000"></path>
    </g>
</svg>