<?xml version="1.0" encoding="UTF-8"?>
<svg width="165px" height="165px" viewBox="0 0 165 165" version="1.1" xmlns="http://www.w3.org/2000/svg" xmlns:xlink="http://www.w3.org/1999/xlink">
    <!-- Generator: Sketch 53.2 (72643) - https://sketchapp.com -->
    <title>Quote</title>
    <desc>Created with Sketch.</desc>
    <g id="Page-1" stroke="none" stroke-width="1" fill="none" fill-rule="evenodd">
        <path d="M104.546838,164.525333 C97.1871585,164.350607 90.6368822,160.915227 90.6512001,150.013018 C90.4479076,131.842639 90.4697154,98.303237 90.6512001,49.7828789 C91.9844555,2.36817118 138.064959,0.504907944 148.576644,0.0692731383 C152.479575,0.302510658 153.780675,2.21617827 154.578947,4.17356105 C155.831948,9.88458567 155.831948,17.6357453 154.578947,27.4270401 C153.93686,32.7057192 151.936092,35.3224781 148.576644,35.2773166 C143.472082,35.2236794 151.862467,35.2263624 140.927765,35.2773166 C128.559674,35.7091823 122.660334,39.3672244 122.615074,56.9085817 C122.635604,63.1213926 122.635604,71.5842998 122.615074,82.2973033 C138.48496,82.4101196 149.139584,82.4488979 154.578947,82.4136382 C159.435737,82.5353733 163.923774,84.3352392 164.565789,96.288498 C164.874062,119.857257 164.829662,136.387115 164.782895,150.013018 C164.664253,157.17723 161.233392,164.356416 151.753558,164.525333 C127.51005,164.615729 113.455097,164.525333 104.546838,164.525333 Z M14.0400451,164.45606 C6.68036548,164.281334 0.130089247,160.845954 0.144407166,149.943745 C-0.058885353,131.773366 -0.0370775896,98.2339638 0.144407166,49.7136058 C1.47766255,2.29889804 47.5581663,0.435634806 58.0698511,-9.9475983e-14 C61.9727821,0.233237519 63.2738816,2.14690514 64.0721544,4.10428791 C65.3251551,9.81531253 65.3251551,17.5664722 64.0721544,27.3577669 C63.4300669,32.6364461 61.4292991,35.2532049 58.0698511,35.2080434 C52.9652887,35.1544062 61.3556736,35.1570892 50.4209719,35.2080434 C38.0528815,35.6399092 32.153541,39.2979513 32.1082808,56.8393085 C32.1288111,63.0521194 32.1288111,71.5150266 32.1082808,82.2280302 C47.9781667,82.3408464 58.6327912,82.3796247 64.0721544,82.3443651 C68.9289443,82.4661002 73.4169814,84.265966 74.0589965,96.2192249 C74.367269,119.787984 74.3228688,136.317842 74.2761018,149.943745 C74.1574604,157.107957 70.7265987,164.287143 61.2467647,164.45606 C37.0032571,164.546456 22.9483044,164.45606 14.0400451,164.45606 Z" id="Quote" fill="#000000"></path>
    </g>
</svg>