<?xml version="1.0" encoding="UTF-8"?>
<svg width="165px" height="165px" viewBox="0 0 165 165" version="1.1" xmlns="http://www.w3.org/2000/svg" xmlns:xlink="http://www.w3.org/1999/xlink">
    <!-- Generator: Sketch 53.2 (72643) - https://sketchapp.com -->
    <title>Warning</title>
    <desc>Created with Sketch.</desc>
    <g id="Page-1" stroke="none" stroke-width="1" fill="none" fill-rule="evenodd">
        <path d="M82.5,165 C36.9365081,165 0,128.063492 0,82.5 C0,36.9365081 36.9365081,0 82.5,0 C128.063492,0 165,36.9365081 165,82.5 C165,128.063492 128.063492,165 82.5,165 Z M70.0629883,121.226562 C70.0629883,124.484391 71.2054736,127.255767 73.4904785,129.540771 C75.7754834,131.825776 78.5468587,132.968262 81.8046875,132.968262 C85.0625163,132.968262 87.8338916,131.825776 90.1188965,129.540771 C92.4039014,127.255767 93.5463867,124.484391 93.5463867,121.226562 C93.5463867,117.968734 92.4039014,115.197358 90.1188965,112.912354 C87.8338916,110.627349 85.0625163,109.484863 81.8046875,109.484863 C78.5468587,109.484863 75.7754834,110.627349 73.4904785,112.912354 C71.2054736,115.197358 70.0629883,117.968734 70.0629883,121.226562 Z M70.0629883,49.1474609 C70.0629883,50.8668706 70.4475873,53.2423351 71.2167969,56.2739258 C71.7145207,58.2195735 72.8230708,62.1108107 74.5424805,67.9477539 C75.8999091,72.5177637 76.804848,76.0696488 77.2573242,78.6035156 C77.7098004,81.1373825 78.5921158,87.7886831 79.9042969,98.5576172 L83.9086914,98.5576172 C84.8588915,90.0058166 85.5489074,84.3160135 85.9787598,81.4880371 C86.4086122,78.6600607 87.2117454,75.1194874 88.3881836,70.8662109 C90.3338313,63.8075819 91.6799279,58.7286125 92.4265137,55.6291504 C93.1730994,52.5296883 93.5463867,50.2107824 93.5463867,48.6723633 C93.5463867,43.7856201 92.3586545,40.278982 89.9831543,38.1523438 C87.6076541,36.0257055 84.8815258,34.9624023 81.8046875,34.9624023 C78.637354,34.9624023 75.8886021,36.0370172 73.5583496,38.1862793 C71.2280971,40.3355413 70.0629883,43.989232 70.0629883,49.1474609 Z" id="Warning" fill="#000000"></path>
    </g>
</svg>